<svg width="800" height="800" viewBox="0 0 800 800" fill="none" xmlns="http://www.w3.org/2000/svg">
<g id="tree-one 1">
<g id="Group 1">
<path id="Vector" d="M339.275 365.559C339.275 365.559 308.459 380.665 308.459 412.689C308.459 444.713 339.275 459.819 339.275 459.819C339.275 459.819 370.091 444.713 370.091 412.689C370.091 380.665 339.275 365.559 339.275 365.559ZM348.338 172.81C348.338 172.81 317.523 187.915 317.523 219.94C317.523 251.964 348.338 267.069 348.338 267.069C348.338 267.069 379.154 251.964 379.154 219.94C379.154 187.915 348.338 172.81 348.338 172.81ZM274.018 287.009C274.018 287.009 304.834 271.903 304.834 239.879C304.834 207.855 274.018 192.749 274.018 192.749C274.018 192.749 243.202 207.855 243.202 239.879C243.202 271.903 274.018 287.009 274.018 287.009ZM303.021 189.124C303.021 189.124 333.837 174.018 333.837 141.994C333.837 109.97 303.021 94.864 303.021 94.864C303.021 94.864 272.205 109.97 272.205 141.994C272.205 174.018 303.021 189.124 303.021 189.124ZM371.903 61.6314C371.903 61.6314 341.088 76.7371 341.088 108.761C341.088 140.785 371.903 155.891 371.903 155.891C371.903 155.891 402.719 140.785 402.719 108.761C402.719 76.1329 371.903 61.6314 371.903 61.6314ZM530.816 190.332C530.816 190.332 561.631 175.227 561.631 143.202C561.631 111.178 530.816 96.0725 530.816 96.0725C530.816 96.0725 500 111.178 500 143.202C500 175.227 530.816 190.332 530.816 190.332ZM469.184 237.462C469.184 269.486 500 284.592 500 284.592C500 284.592 530.816 269.486 530.816 237.462C530.816 205.438 500 190.332 500 190.332C500 190.332 469.184 205.438 469.184 237.462ZM239.577 383.082C239.577 383.082 224.471 352.266 192.447 352.266C160.423 352.266 145.317 383.082 145.317 383.082C145.317 383.082 160.423 413.897 192.447 413.897C224.471 413.897 239.577 383.082 239.577 383.082ZM641.39 308.157C609.366 308.157 594.26 338.973 594.26 338.973C594.26 338.973 609.366 369.788 641.39 369.788C673.414 369.788 688.52 338.973 688.52 338.973C688.52 338.973 673.414 308.157 641.39 308.157ZM505.438 380.665C505.438 380.665 520.544 411.48 552.568 411.48C584.592 411.48 599.698 380.665 599.698 380.665C599.698 380.665 584.592 349.849 552.568 349.849C520.544 349.849 505.438 380.665 505.438 380.665ZM354.985 285.196C354.985 285.196 322.356 273.716 300 296.677C277.039 319.637 288.52 351.662 288.52 351.662C288.52 351.662 321.148 363.142 343.505 340.181C366.465 317.825 354.985 285.196 354.985 285.196ZM613.595 178.852C613.595 178.852 580.967 167.372 558.61 190.332C535.65 213.293 547.13 245.317 547.13 245.317C547.13 245.317 579.758 256.798 602.115 233.837C625.076 210.876 613.595 178.852 613.595 178.852ZM594.864 265.257C594.864 265.257 562.236 253.776 539.879 276.737C516.918 299.698 528.399 331.722 528.399 331.722C528.399 331.722 561.027 343.202 583.384 320.242C606.344 297.885 594.864 265.257 594.864 265.257ZM245.619 427.795C245.619 427.795 212.991 416.314 190.634 439.275C167.674 462.236 179.154 494.26 179.154 494.26C179.154 494.26 211.782 505.74 234.139 482.779C257.1 460.423 245.619 427.795 245.619 427.795ZM638.369 140.181C661.329 117.221 649.849 85.1964 649.849 85.1964C649.849 85.1964 617.221 73.716 594.864 96.6767C571.903 119.637 583.384 151.662 583.384 151.662C583.384 151.662 615.408 163.142 638.369 140.181ZM612.991 287.009C612.991 287.009 645.619 298.489 667.976 275.529C690.937 252.568 679.456 220.544 679.456 220.544C679.456 220.544 646.828 209.063 624.471 232.024C601.511 254.985 612.991 287.009 612.991 287.009ZM459.517 406.647C459.517 406.647 448.036 439.275 470.997 461.631C493.958 484.592 525.982 473.112 525.982 473.112C525.982 473.112 537.462 440.483 514.502 418.127C491.541 395.166 459.517 406.647 459.517 406.647ZM194.864 274.924C194.864 274.924 183.384 307.553 206.344 329.909C229.305 352.87 261.329 341.39 261.329 341.39C261.329 341.39 272.81 308.761 249.849 286.405C227.492 263.444 194.864 274.924 194.864 274.924ZM178.55 336.556C178.55 336.556 190.03 303.927 167.069 281.571C144.109 258.61 112.085 270.091 112.085 270.091C112.085 270.091 100.604 302.719 123.565 325.076C146.526 347.432 178.55 336.556 178.55 336.556ZM229.909 254.985C229.909 254.985 241.39 222.356 218.429 200C195.468 177.039 163.444 188.52 163.444 188.52C163.444 188.52 151.964 221.148 174.924 243.505C197.281 266.465 229.909 254.985 229.909 254.985ZM547.13 427.795C547.13 427.795 535.65 460.423 558.61 482.779C581.571 505.74 613.595 494.26 613.595 494.26C613.595 494.26 625.076 461.631 602.115 439.275C579.758 416.918 547.13 427.795 547.13 427.795ZM446.224 178.852C423.263 155.891 391.239 167.372 391.239 167.372C391.239 167.372 379.758 200 402.719 222.356C425.68 245.317 457.704 233.837 457.704 233.837C457.704 233.837 469.184 201.813 446.224 178.852ZM483.686 165.559C483.686 165.559 495.166 132.93 472.205 110.574C449.245 87.6133 417.221 99.0936 417.221 99.0936C417.221 99.0936 405.74 131.722 428.701 154.079C451.057 177.039 483.686 165.559 483.686 165.559ZM258.308 483.988C258.308 483.988 227.492 499.094 227.492 531.118C227.492 563.142 258.308 578.248 258.308 578.248C258.308 578.248 289.124 563.142 289.124 531.118C289.124 499.094 258.308 483.988 258.308 483.988Z" fill="#1CA538"/>
</g>
<g id="Group 2">
<path id="Vector_2" d="M500.604 300.906C487.915 297.281 481.873 331.722 470.997 345.619C461.329 357.704 448.036 356.495 430.514 355.891C429.305 322.659 428.097 294.864 426.888 276.737C425.68 259.819 421.45 253.776 408.761 253.776C396.072 253.776 391.239 260.423 390.634 276.737C388.218 317.221 385.801 404.834 382.779 494.26C353.776 493.051 319.94 480.967 300 456.193C279.456 430.816 271.601 355.287 259.517 358.308C247.432 360.725 250.453 447.13 279.456 483.988C302.417 512.991 337.462 534.743 382.175 536.556C379.154 651.36 376.737 757.704 376.737 757.704H441.39C441.39 757.704 436.556 538.973 431.722 389.728C460.121 388.52 475.831 383.082 487.311 369.789C500.604 355.287 513.293 305.136 500.604 300.906Z" fill="#65320B"/>
</g>
</g>
</svg>
